<svg xmlns="http://www.w3.org/2000/svg" viewBox="0 0 500 500"><g id="freepik--Shadow--inject-129"><ellipse id="freepik--path--inject-129" cx="250" cy="416.24" rx="193.89" ry="11.32" style="fill:#f5f5f5"></ellipse></g><g id="freepik--Book--inject-129"><rect x="180.96" y="157.03" width="155.64" height="259.47" style="fill:#407BFF"></rect><rect x="180.96" y="157.03" width="155.64" height="259.47" style="fill:#fff;opacity:0.5"></rect><rect x="160.71" y="157.03" width="155.64" height="259.47" style="fill:#407BFF"></rect><rect x="160.71" y="157.03" width="155.64" height="259.47" style="fill:#fff;opacity:0.7000000000000001"></rect><g style="opacity:0.2"><polygon points="321.08 157 320.59 289.55 320.11 157 321.08 157"></polygon><polygon points="325.26 157 324.78 303.02 324.3 157 325.26 157"></polygon><polygon points="334.24 157 333.76 224.32 333.28 157 334.24 157"></polygon><polygon points="324.3 415.57 324.78 324.85 325.26 415.57 324.3 415.57"></polygon><polygon points="328.7 416.54 329.19 237.44 329.67 416.54 328.7 416.54"></polygon><polygon points="333.28 415.57 333.76 329.04 334.24 415.57 333.28 415.57"></polygon><polygon points="329.67 157 329.19 215.67 328.7 157 329.67 157"></polygon><polygon points="320.11 416.04 320.59 314.4 321.08 416.04 320.11 416.04"></polygon></g><path d="M153.65,194.06H168a0,0,0,0,1,0,0v40.79a0,0,0,0,1,0,0H153.65a1.31,1.31,0,0,1-1.31-1.31V195.38A1.31,1.31,0,0,1,153.65,194.06Z" style="fill:#263238"></path><path d="M168.58,226.85a.48.48,0,0,1-.48-.48v-4.6l-19.9-4.15a4.05,4.05,0,0,1-3.25,1.7,4.9,4.9,0,0,1,0-9.73,4.06,4.06,0,0,1,3.25,1.71l19.9-4.16v-3.77a.49.49,0,0,1,.48-.48.48.48,0,0,1,.48.48v4.16a.49.49,0,0,1-.38.48l-20.6,4.29a.47.47,0,0,1-.5-.2,3.16,3.16,0,0,0-2.63-1.54,3.95,3.95,0,0,0,0,7.8,3.16,3.16,0,0,0,2.63-1.54.48.48,0,0,1,.5-.21l20.6,4.3a.48.48,0,0,1,.38.47v5A.47.47,0,0,1,168.58,226.85Z" style="fill:#407BFF"></path><path d="M169.19,193.94v11.29h-1.78V193.94a.89.89,0,0,1,.89-.89h0A.89.89,0,0,1,169.19,193.94Z" style="fill:#263238"></path><rect x="167.41" y="209.9" width="1.78" height="9.12" style="fill:#263238"></rect><path d="M167.41,223.69h1.78V235a.89.89,0,0,1-.89.89h0a.89.89,0,0,1-.89-.89Z" style="fill:#263238"></path><path d="M153.65,338.68H168a0,0,0,0,1,0,0v40.79a0,0,0,0,1,0,0H153.65a1.31,1.31,0,0,1-1.31-1.31V340A1.31,1.31,0,0,1,153.65,338.68Z" style="fill:#263238"></path><path d="M168.58,371.47a.48.48,0,0,1-.48-.48v-4.6l-19.9-4.15a4.05,4.05,0,0,1-3.25,1.7,4.9,4.9,0,0,1,0-9.73,4.06,4.06,0,0,1,3.25,1.71l19.9-4.16V348a.49.49,0,0,1,.48-.48.48.48,0,0,1,.48.48v4.17a.49.49,0,0,1-.38.47l-20.6,4.3a.5.5,0,0,1-.5-.21,3.16,3.16,0,0,0-2.63-1.54,3.95,3.95,0,0,0,0,7.8,3.16,3.16,0,0,0,2.63-1.54.48.48,0,0,1,.5-.21l20.6,4.3a.48.48,0,0,1,.38.47v5A.47.47,0,0,1,168.58,371.47Z" style="fill:#407BFF"></path><path d="M169.19,338.56v11.29h-1.78V338.56a.89.89,0,0,1,.89-.89h0A.89.89,0,0,1,169.19,338.56Z" style="fill:#263238"></path><rect x="167.41" y="354.52" width="1.78" height="9.12" style="fill:#263238"></rect><path d="M167.41,368.31h1.78V379.6a.89.89,0,0,1-.89.89h0a.89.89,0,0,1-.89-.89Z" style="fill:#263238"></path><rect x="181.26" y="201.37" width="62.18" height="47.64" style="opacity:0.2"></rect><polygon points="181.26 242.53 201.13 226.15 212.35 236.43 231.24 220.46 243.44 232.01 243.44 249.01 181.26 249.01 181.26 242.53" style="fill:#fff;opacity:0.4"></polygon><circle cx="195.41" cy="215.16" r="5.65" style="fill:#fff;opacity:0.4"></circle><rect x="181.26" y="172.01" width="121.39" height="20.07" style="opacity:0.2"></rect><rect x="251.06" y="201.37" width="51.59" height="2.66" style="opacity:0.2"></rect><rect x="251.06" y="208.83" width="51.59" height="2.66" style="opacity:0.2"></rect><rect x="251.06" y="216.28" width="51.59" height="2.66" style="opacity:0.2"></rect><rect x="251.06" y="223.73" width="51.59" height="2.66" style="opacity:0.2"></rect><rect x="251.06" y="231.19" width="51.59" height="2.66" style="opacity:0.2"></rect><rect x="251.06" y="238.64" width="51.59" height="2.66" style="opacity:0.2"></rect><rect x="251.06" y="246.36" width="51.59" height="2.66" style="opacity:0.2"></rect><rect x="181.26" y="259.84" width="121.39" height="2.66" style="opacity:0.2"></rect><rect x="181.26" y="266.94" width="121.39" height="2.66" style="opacity:0.2"></rect><rect x="181.26" y="274.04" width="121.39" height="2.66" style="opacity:0.2"></rect><rect x="181.26" y="281.14" width="121.39" height="2.66" style="opacity:0.2"></rect><rect x="181.26" y="288.24" width="121.39" height="2.66" style="opacity:0.2"></rect><rect x="181.26" y="295.34" width="121.39" height="2.66" style="opacity:0.2"></rect><rect x="240.47" y="307.42" width="62.18" height="47.64" style="opacity:0.2"></rect><polygon points="240.47 348.59 260.34 332.2 271.56 342.49 290.45 326.52 302.65 338.07 302.65 355.07 240.47 355.07 240.47 348.59" style="fill:#fff;opacity:0.4"></polygon><path d="M260.28,321.21a5.66,5.66,0,1,1-5.66-5.65A5.66,5.66,0,0,1,260.28,321.21Z" style="fill:#fff;opacity:0.4"></path><rect x="181.26" y="307.42" width="51.59" height="2.66" transform="translate(414.1 617.51) rotate(180)" style="opacity:0.2"></rect><rect x="181.26" y="314.89" width="51.59" height="2.66" transform="translate(414.1 632.43) rotate(180)" style="opacity:0.2"></rect><rect x="181.26" y="322.34" width="51.59" height="2.66" transform="translate(414.1 647.33) rotate(180)" style="opacity:0.2"></rect><rect x="181.26" y="329.79" width="51.59" height="2.66" transform="translate(414.1 662.23) rotate(180)" style="opacity:0.2"></rect><rect x="181.26" y="337.24" width="51.59" height="2.66" transform="translate(414.1 677.14) rotate(180)" style="opacity:0.2"></rect><rect x="181.26" y="344.69" width="51.59" height="2.66" transform="translate(414.1 692.04) rotate(180)" style="opacity:0.2"></rect><rect x="181.26" y="352.41" width="51.59" height="2.66" transform="translate(414.1 707.48) rotate(180)" style="opacity:0.2"></rect><rect x="181.26" y="364.93" width="121.39" height="2.66" style="opacity:0.2"></rect><rect x="181.26" y="372.03" width="121.39" height="2.66" style="opacity:0.2"></rect><rect x="181.26" y="379.13" width="121.39" height="2.66" style="opacity:0.2"></rect><rect x="181.26" y="386.23" width="121.39" height="2.66" style="opacity:0.2"></rect><rect x="181.26" y="393.33" width="121.39" height="2.66" style="opacity:0.2"></rect><rect x="181.26" y="400.43" width="121.39" height="2.66" style="opacity:0.2"></rect><path d="M191.9,268c-7.34,0-13.6-1.36-15.56-5.06a4.48,4.48,0,0,1,1.2-6c7.92-6.61,41.53-5.24,47.14-.83a1,1,0,1,1-1.19,1.51c-4.88-3.83-37.6-5.14-44.72.8a2.57,2.57,0,0,0-.72,3.59c2.11,4,12.82,5.17,26.64,2.91,13-2.13,22.16-6.23,22.57-8.74.12-.76-.87-1.46-1.72-1.91a1,1,0,1,1,.9-1.7c2.56,1.35,2.89,2.88,2.72,3.92-.74,4.5-13,8.51-24.16,10.33A83.73,83.73,0,0,1,191.9,268Z" style="fill:#407BFF"></path><path d="M306.24,372.63a1,1,0,0,1-.62-.22l-12.68-10.63a1,1,0,1,1,1.24-1.47l12.68,10.62a1,1,0,0,1,.12,1.36A.94.94,0,0,1,306.24,372.63Z" style="fill:#407BFF"></path><path d="M296.1,373.13a1,1,0,0,1-.72-1.6,68.4,68.4,0,0,0,9.81-14.27,1,1,0,1,1,1.72.88,70.57,70.57,0,0,1-10.09,14.67A.93.93,0,0,1,296.1,373.13Z" style="fill:#407BFF"></path><path d="M179,388.86a1,1,0,0,1-.75-.36,10.39,10.39,0,0,1-2-4.11,1,1,0,0,1,.7-1.16,1,1,0,0,1,1.17.7,8.47,8.47,0,0,0,.86,2.17,41.53,41.53,0,0,1,7.56-9.11,1,1,0,0,1,1.36.07,1,1,0,0,1-.07,1.36,39.64,39.64,0,0,0-7.95,9.95,1,1,0,0,1-.76.49Z" style="fill:#407BFF"></path><path d="M250.25,227.56h-.12l-2.29-.3A1.9,1.9,0,0,1,246,225.7a19.74,19.74,0,0,1-.53-5.64l0-17.9a1,1,0,0,1,.35-.75,1,1,0,0,1,.8-.19l1.5.3a1,1,0,0,1-.39,1.89l-.34-.07,0,16.73a18.34,18.34,0,0,0,.45,5.09l0,.15.2,0,2.29.3a1,1,0,0,1-.13,1.92Z" style="fill:#407BFF"></path><path d="M241.37,208.46h-.05c-4.12-.23-8.29-.36-12.41-.38a1,1,0,0,1-1-1,1,1,0,0,1,1-1c4.15,0,8.36.16,12.5.39a1,1,0,0,1,0,1.92Z" style="fill:#407BFF"></path><path d="M232.23,212a1,1,0,0,1-.22-1.9,23.46,23.46,0,0,1,7.33-.18c.69.06,1.39.12,2.08.16a1,1,0,0,1,.91,1,1,1,0,0,1-1,.91c-.72,0-1.43-.1-2.14-.16a21.51,21.51,0,0,0-6.72.14Z" style="fill:#407BFF"></path><path d="M241.37,215.54h-.16a17.59,17.59,0,0,0-3.06-.09,19,19,0,0,1-3.42-.12,1,1,0,0,1,.32-1.9,17.52,17.52,0,0,0,3.06.09,19,19,0,0,1,3.42.12,1,1,0,0,1-.16,1.91Z" style="fill:#407BFF"></path><path d="M228.4,219.16a1,1,0,0,1-1-.94,1,1,0,0,1,.94-1l13-.28a1,1,0,0,1,0,1.93l-13,.28Z" style="fill:#407BFF"></path><path d="M241.37,222.6h-6.61a1,1,0,0,1,0-1.92h6.61a1,1,0,0,1,0,1.92Z" style="fill:#407BFF"></path><path d="M221.57,332h-.37c-13.34-.06-26.75-1.86-39.72-3.61-1.24-.17-3.13-.42-4.31-1.78a4.55,4.55,0,0,1-.4-5,7.48,7.48,0,0,1,3.5-3.16c3.54-1.74,7.57-1.71,11.13-1.7,7.09,0,14.42.07,21.7.26,6.27.17,12.33.55,17.6,3.35a1,1,0,1,1-.91,1.7c-4.9-2.6-10.71-3-16.74-3.12-7.26-.2-14.58-.23-21.66-.26-3.35,0-7.14,0-10.27,1.5a5.57,5.57,0,0,0-2.64,2.32,2.64,2.64,0,0,0,.14,2.85,5,5,0,0,0,3.12,1.13c12.91,1.74,26.25,3.54,39.47,3.59,3.26,0,7-.13,9.71-2a6.85,6.85,0,0,0,2.87-4.47,4.2,4.2,0,0,0-.75-3.31,1,1,0,0,1,.16-1.36,1,1,0,0,1,1.35.17,6.09,6.09,0,0,1,1.14,4.8,8.83,8.83,0,0,1-3.69,5.77C228.91,331.76,225,332,221.57,332Z" style="fill:#407BFF"></path><path d="M296.6,408.46c-5.24,0-10.73-.35-15.88-2.28-.67-.25-2.73-1-3-2.91-.2-1.46.8-2.85,2.75-3.81,6.1-3,13.13-3,19.38-2.82a16.91,16.91,0,0,0-3.32-1.14,1,1,0,1,1,.44-1.88,19.32,19.32,0,0,1,6.83,3.1c1.46,1,3.87,3.25,3.59,6.18a6,6,0,0,1-3.87,4.72,14.86,14.86,0,0,1-5.65.84Zm-.42-9.94c-5,0-10.28.4-14.85,2.66-.88.44-1.78,1.15-1.69,1.82s1,1.09,1.76,1.38c5.27,2,11,2.2,16.46,2.15a13.09,13.09,0,0,0,4.93-.69,4.09,4.09,0,0,0,2.69-3.13c.2-2-1.89-3.77-2.79-4.42-.47-.33-.94-.64-1.44-.93a.86.86,0,0,1,0,.28.93.93,0,0,1-1,.94C299,398.55,297.58,398.52,296.18,398.52Z" style="fill:#407BFF"></path></g><g id="freepik--speech-bubble-1--inject-129"><path d="M139.6,137.63H112.2a8.43,8.43,0,0,0-8.43,8.44v23.84a8.43,8.43,0,0,0,8.43,8.44H123l2.86,7.52,2.86-7.52H139.6a8.44,8.44,0,0,0,8.44-8.44V146.07A8.44,8.44,0,0,0,139.6,137.63Z" style="fill:#407BFF"></path><path d="M139.6,137.63H112.2a8.43,8.43,0,0,0-8.43,8.44v23.84a8.43,8.43,0,0,0,8.43,8.44H123l2.86,7.52,2.86-7.52H139.6a8.44,8.44,0,0,0,8.44-8.44V146.07A8.44,8.44,0,0,0,139.6,137.63Z" style="fill:#fff;opacity:0.7000000000000001"></path><circle cx="125.9" cy="157.88" r="13.6" transform="translate(-23.66 22.21) rotate(-9.22)" style="fill:#407BFF"></circle><path d="M124.47,164a1.26,1.26,0,0,1-1-.44l-5.33-6.29a1.25,1.25,0,1,1,1.9-1.61l4.38,5.16,7.24-8.53a1.25,1.25,0,0,1,1.91,1.62l-8.19,9.65A1.26,1.26,0,0,1,124.47,164Z" style="fill:#fff"></path></g><g id="freepik--character-1--inject-129"><path d="M160.05,270l-.74-1.81a2.26,2.26,0,0,0-1.59-1.35l-3.34-.79a4.26,4.26,0,0,0-3.78.95l-.64.56c1,3.09,4.41,5.66,4.41,5.66l.88.85a1.89,1.89,0,0,0,2.69,0l1.69-1.73A2.18,2.18,0,0,0,160.05,270Z" style="fill:#ebb376"></path><path d="M120.1,235.84c4.82,7.29,9.39,14.73,13.86,22.24l-1.76-1.42c3.51,1.45,7,3,10.48,4.52,3,1.4,7.4,3.39,10.35,4.92a2,2,0,0,1-1.37,3.69c-7.29-1.8-14.83-4.09-21.95-6.41a3.26,3.26,0,0,1-1.77-1.42c-5-7.18-9.87-14.42-14.52-21.82a4,4,0,0,1,6.68-4.3Z" style="fill:#e9b376"></path><path d="M128.94,248,120,252.11l-1-1-3.83-3.83-.53-.53,3.47-17.21C124.33,233.45,128.94,248,128.94,248Z" style="fill:#263238"></path><path d="M119,251.13l-3.83-3.83a14.56,14.56,0,0,1,4.3-7A22,22,0,0,1,119,251.13Z" style="opacity:0.2"></path><path d="M91.92,231.45c-1.37,4.72-1.86,8.82-2.82,12.21-1.7,6-5.8,21.59-7.87,25.26l27.43,1.35C113,262.89,120,245,121,242.64a12,12,0,0,0-1-11.27,7.15,7.15,0,0,0-1.87-1.81c-1.08-.71-2.22-1.44-3.34-2.1a28.38,28.38,0,0,0-11.75-3.4C95.54,224.05,93,227.71,91.92,231.45Z" style="fill:#263238"></path><path d="M130.84,409.7l4.46-1.22c-1.64-22.47-6.05-49.58-9.79-69.91-.59-3.19-1.16-6.2-1.7-9-.27-1.33-.51-2.62-.76-3.85-1.19-6.09-2.19-10.91-2.81-13.88-.46-2.17-.72-3.37-.72-3.37l-16,4.65,1.33,4,4.41,13.32.5,1.53,2.91,8.8,4.95,15C118.29,378.7,130.84,409.7,130.84,409.7Z" style="fill:#ebb376"></path><path d="M92,408.61l4.6-.44c2.41-24.37,2.5-54.71,2.18-75.79-.06-3.27-.12-6.32-.18-9.09,0-.14,0-.27,0-.41-.13-5.49-.27-9.85-.37-12.61l-.14-3.35-16.58,1.85,1,6.9L84,325.81l.3,2,1,6.91,2.77,18.52C84.89,375.92,92,408.61,92,408.61Z" style="fill:#ebb376"></path><path d="M84,325.81l14.57-2.52c0-.14,0-.27,0-.41-.13-5.49-.27-9.85-.37-12.61l-15.69,5.4Z" style="isolation:isolate;opacity:0.2"></path><path d="M121.84,319.62l-15.33,2.6-1.67-5.07,15.4-5.32C120.63,313.72,121.19,316.37,121.84,319.62Z" style="isolation:isolate;opacity:0.2"></path><path d="M82.12,265s-9.94,23.23-.65,56.91l18.11-2.07V302.48l3.92,16.73,18.16-3.65C116.08,288.23,111,275.83,111,275.83l-.91-9.26Z" style="fill:#407BFF"></path><polygon points="90.97 271.23 105.93 271.84 105.93 267.21 90.97 266.56 90.97 271.23" style="fill:#263238"></polygon><polygon points="89.65 266.51 82.14 266.19 81.47 270.85 89.65 271.18 89.65 266.51" style="fill:#263238"></polygon><polygon points="107.08 267.25 107.08 271.89 110.44 272.03 110.44 267.4 107.08 267.25" style="fill:#263238"></polygon><path d="M104.55,267.55a2,2,0,0,0-1.34-.6l-3.53-.15a1.46,1.46,0,0,0-1.61,1.47v2.16a1.87,1.87,0,0,0,.57,1.3,2,2,0,0,0,1.19.59l.16,0,3.53.14a1.46,1.46,0,0,0,1.6-1.47v-2.15A1.91,1.91,0,0,0,104.55,267.55Zm-1.11,4.06-3.53-.14a.94.94,0,0,1-.65-.3.87.87,0,0,1-.28-.63v-2.16a.71.71,0,0,1,.78-.71l3.53.15h.08a1,1,0,0,1,.57.29.86.86,0,0,1,.27.63v.33a.33.33,0,0,0-.13,0l-1-.05a.51.51,0,0,0-.56.55.71.71,0,0,0,.65.61l1,.05h0v.71A.7.7,0,0,1,103.44,271.61Z" style="fill:#fff"></path><path d="M89.8,407.67c0-.57,7.12-.12,7.12-.12s4.37,4.44,8.61,5.44,1.88,3.55-2.87,3.55H90.92C87.55,416.54,89.66,413.67,89.8,407.67Z" style="fill:#263238"></path><path d="M100.65,409.37a9.07,9.07,0,0,1-2.94-.9.15.15,0,0,1-.06-.05h0l0,0a.23.23,0,0,1,0-.14c0-.08.63-1.73,1.59-2.13a1.1,1.1,0,0,1,.92,0c.32.15.48.35.47.6s-.53.75-1.11,1a2.93,2.93,0,0,1,1.59.18.75.75,0,0,1,.38.48.68.68,0,0,1-.17.76A1,1,0,0,1,100.65,409.37Zm-2.29-1c1,.44,2.35.83,2.68.56,0,0,.12-.1,0-.38a.43.43,0,0,0-.2-.25A4.67,4.67,0,0,0,98.36,408.35Zm1.27-2a.79.79,0,0,0-.29.06A3.18,3.18,0,0,0,98.12,408c1.06-.4,2.07-1,2.09-1.27,0-.1-.15-.19-.25-.24A.8.8,0,0,0,99.63,406.39Z" style="fill:#407BFF"></path><path d="M129.57,407.67c0-.57,7.12-.12,7.12-.12s4.37,4.44,8.62,5.44,1.87,3.55-2.87,3.55H130.7C127.32,416.54,129.43,413.67,129.57,407.67Z" style="fill:#263238"></path><path d="M140.43,409.37a9.22,9.22,0,0,1-3-.9l-.06-.05h0a.08.08,0,0,1,0,0,.17.17,0,0,1,0-.14c0-.08.62-1.73,1.58-2.13a1.1,1.1,0,0,1,.92,0c.33.15.48.35.47.6s-.53.75-1.11,1a3,3,0,0,1,1.6.18.75.75,0,0,1,.38.48.72.72,0,0,1-.17.76A1,1,0,0,1,140.43,409.37Zm-2.3-1c1.05.44,2.35.83,2.69.56,0,0,.12-.1,0-.38a.4.4,0,0,0-.2-.25A4.67,4.67,0,0,0,138.13,408.35Zm1.28-2a.72.72,0,0,0-.29.06A3.07,3.07,0,0,0,137.9,408c1-.4,2.07-1,2.09-1.27,0-.1-.16-.19-.26-.24A.79.79,0,0,0,139.41,406.39Z" style="fill:#407BFF"></path><path d="M99.58,302.48c3.1-6.4,5.26-11.66,5.26-11.66s.68,16.19-1.34,28.39Z" style="isolation:isolate;opacity:0.2"></path><rect x="165.37" y="251.13" width="10.9" height="18.54" transform="translate(-28.51 499.68) rotate(-106.94)" style="fill:#263238"></rect><rect x="165.37" y="251.13" width="10.9" height="18.54" transform="translate(-28.51 499.68) rotate(-106.94)" style="fill:#fff;opacity:0.1"></rect><rect x="162.77" y="263.18" width="18.55" height="2.49" transform="translate(-69.59 61.61) rotate(-16.94)" style="opacity:0.30000000000000004"></rect><circle cx="211.78" cy="246.77" r="33.89" transform="translate(-10.88 9.77) rotate(-2.58)" style="fill:#407BFF"></circle><circle cx="211.78" cy="246.77" r="33.89" transform="translate(-10.88 9.77) rotate(-2.58)" style="fill:#fff;opacity:0.8"></circle><path d="M246,242.39v16.05H187.33V223.31a33.65,33.65,0,0,1,14.58-8.95,36,36,0,0,1,3.62-.89H218a33.89,33.89,0,0,1,26.16,23.42,34.55,34.55,0,0,1,1.09,4.8h0Z" style="opacity:0.2"></path><polygon points="246.02 242.39 246.02 258.44 187.33 258.44 187.33 252.32 206.09 236.86 216.67 246.56 234.51 231.49 245.29 241.69 245.29 241.7 246.02 242.39" style="fill:#fff;opacity:0.4"></polygon><path d="M206,226.48a5.34,5.34,0,1,1-5.33-5.33A5.33,5.33,0,0,1,206,226.48Z" style="fill:#fff;opacity:0.4"></path><path d="M237.65,268.66a30.64,30.64,0,0,1-2.34,2.5h-48v-2.5Z" style="opacity:0.2"></path><path d="M230,275.36a32.77,32.77,0,0,1-4.73,2.5h-27a32.67,32.67,0,0,1-4.71-2.5Z" style="opacity:0.2"></path><path d="M185,267.35l-.08.07c-.37-.48-.73-1-1.07-1.47,7.49-6.24,39.18-4.95,44.47-.78a.9.9,0,1,1-1.12,1.42C222.59,263,191.7,261.75,185,267.35Z" style="fill:#407BFF"></path><path d="M232.53,265.53c-.69,4.25-12.3,8-22.79,9.75a79.2,79.2,0,0,1-12.36,1.08c-.75,0-1.48,0-2.2-.05-.54-.3-1.07-.61-1.59-.95s-1.11-.73-1.65-1.13a62.54,62.54,0,0,0,17.5-.75c12.26-2,20.92-5.88,21.3-8.24.12-.72-.82-1.38-1.62-1.81a.92.92,0,0,1-.38-1.23.91.91,0,0,1,1.23-.37C232.39,263.1,232.7,264.55,232.53,265.53Z" style="fill:#407BFF"></path><path d="M241.27,230.06l-9.43.2h0a.92.92,0,0,1-.91-.89.91.91,0,0,1,.9-.92l8.36-.19C240.56,228.85,240.93,229.45,241.27,230.06Z" style="fill:#407BFF"></path><path d="M243,233.51h-5.14a.91.91,0,1,1,0-1.82h4.3C242.43,232.28,242.71,232.89,243,233.51Z" style="fill:#407BFF"></path><path d="M201.83,214.64a36.39,36.39,0,1,0,45.41,24.21A36.39,36.39,0,0,0,201.83,214.64Zm1.26,4.13a32.08,32.08,0,1,1-21.34,40A32.08,32.08,0,0,1,203.09,218.77Z" style="fill:#263238"></path><path d="M201.83,214.64a36.39,36.39,0,1,0,45.41,24.21A36.39,36.39,0,0,0,201.83,214.64Zm1.26,4.13a32.08,32.08,0,1,1-21.34,40A32.08,32.08,0,0,1,203.09,218.77Z" style="fill:#fff;opacity:0.1"></path><path d="M200.87,211.48a36.39,36.39,0,1,0,45.41,24.2A36.39,36.39,0,0,0,200.87,211.48Zm1.25,4.12a32.08,32.08,0,1,1-21.33,40A32.08,32.08,0,0,1,202.12,215.6Z" style="fill:#263238"></path><path d="M200.87,211.48a36.39,36.39,0,1,0,45.41,24.2A36.39,36.39,0,0,0,200.87,211.48Zm1.25,4.12a32.08,32.08,0,1,1-21.33,40A32.08,32.08,0,0,1,202.12,215.6Z" style="fill:#fff;opacity:0.30000000000000004"></path><path d="M103.4,280.94h0a7.27,7.27,0,0,0,9.07,4.84l52.27-15.92a2.38,2.38,0,0,0,1.57-3l-2.86-9.38a2.37,2.37,0,0,0-2.95-1.58l-52.27,15.92A7.28,7.28,0,0,0,103.4,280.94Z" style="fill:#263238"></path><path d="M103.4,280.94h0a7.27,7.27,0,0,0,9.07,4.84l52.27-15.92a2.38,2.38,0,0,0,1.57-3l-2.86-9.38a2.37,2.37,0,0,0-2.95-1.58l-52.27,15.92A7.28,7.28,0,0,0,103.4,280.94Z" style="fill:#fff;opacity:0.30000000000000004"></path><path d="M103.14,279.72a5.77,5.77,0,0,0,.26,1.22,7.26,7.26,0,0,0,9.07,4.83l52.27-15.92a2.36,2.36,0,0,0,1.57-3l-.72-2.37a2.37,2.37,0,0,1-1.58,3L111.75,283.4A7.26,7.26,0,0,1,103.14,279.72Z" style="opacity:0.30000000000000004"></path><path d="M108.68,275.59A2.36,2.36,0,1,0,112,277,2.57,2.57,0,0,0,108.68,275.59Z" style="opacity:0.30000000000000004"></path><path d="M222.27,226.92c-3.2,2.18-3.47,7.33-.62,11.51s7.74,5.81,10.94,3.63,3.47-7.33.62-11.51S225.46,224.75,222.27,226.92Z" style="fill:#fff;opacity:0.4"></path><path d="M217.25,239.78a2,2,0,1,0,2.3.76A1.75,1.75,0,0,0,217.25,239.78Z" style="fill:#fff;opacity:0.4"></path><path d="M117.41,225.08a12,12,0,0,0-1.85,1.7c-1.34,1.59-1.9,3.59-.1,6.25,0,0,.53,1.86-3.27,2.71C109.75,227,106.71,225,106.71,225c1.82-.1,3.7-1.73,5.36-3.76a32.66,32.66,0,0,0,2.8-4.09c.4-.67.75-1.31,1-1.89l.31,2Z" style="fill:#ebb376"></path><path d="M117.41,225.08a12,12,0,0,0-1.85,1.7,12.31,12.31,0,0,1-3.49-5.57,32.66,32.66,0,0,0,2.8-4.09c.45,0,.9.08,1.36.14Z" style="opacity:0.2"></path><path d="M119.17,201.39s4.91-5.65-1-10.39-17.49-2.6-19.63,8.1.81,15.22.81,15.22,0-6.81,2-8.8a14.55,14.55,0,0,0,0,5.22c.59,2,0,.72,0,.72s1.81-8.54,10.53-6.09S119.17,201.39,119.17,201.39Z" style="fill:#263238"></path><path d="M123.94,202.25c6.47,2,7.5,6.08,5.94,12.89-1.95,8.52-5.61,13.88-13.16,9.63C106.47,219,113.19,199,123.94,202.25Z" style="fill:#ebb376"></path><path d="M125.8,213.5a14,14,0,0,0,1.07,3.26,1.87,1.87,0,0,1-1.93.21Z" style="fill:#d58745"></path><path d="M122,211.77c-.15.53-.56.88-.92.78s-.52-.61-.37-1.15.56-.88.92-.78S122.15,211.23,122,211.77Z" style="fill:#263238"></path><path d="M121.47,210.6l1.29-.13S121.91,211.29,121.47,210.6Z" style="fill:#263238"></path><path d="M128.69,213.52c-.15.53-.56.88-.92.78s-.52-.61-.37-1.15.56-.88.91-.78S128.84,213,128.69,213.52Z" style="fill:#263238"></path><path d="M128.16,212.35l1.29-.13S128.6,213,128.16,212.35Z" style="fill:#263238"></path><path d="M120.19,207.68a.28.28,0,0,1-.23-.12.29.29,0,0,1,.08-.39,3.8,3.8,0,0,1,3.38-.15.27.27,0,0,1,.13.37.28.28,0,0,1-.37.14,3.25,3.25,0,0,0-2.83.1A.3.3,0,0,1,120.19,207.68Z" style="fill:#263238"></path><path d="M130.5,210a.26.26,0,0,1-.21-.11,2.85,2.85,0,0,0-2.19-1.21.28.28,0,0,1,0-.56,3.37,3.37,0,0,1,2.65,1.42.27.27,0,0,1,0,.39A.24.24,0,0,1,130.5,210Z" style="fill:#263238"></path><path d="M113.54,211s4.64-4.39,5.44-8.64c0,0,14.42-1.32,11.08,11.89,0,0,4.78-11.18-6.27-14.83s-16,12.64-11.69,19.24C112.1,218.66,110.65,213.76,113.54,211Z" style="fill:#263238"></path><path d="M123.44,219.89h0a3.57,3.57,0,0,1-3.57-3,.27.27,0,0,1,.24-.31.28.28,0,0,1,.31.24,3,3,0,0,0,3,2.55.28.28,0,0,1,0,.56Z" style="fill:#263238"></path><path d="M112.42,209.71a.18.18,0,0,0,.1.21l0,0,6.59,1.53a2.87,2.87,0,0,0,1.66,3.06,3.47,3.47,0,0,0,4.43-1.2,2.69,2.69,0,0,0,.19-.43,1.12,1.12,0,0,1,.85-.25.57.57,0,0,1,.34.39,2.88,2.88,0,0,0,1.67,3,3.45,3.45,0,0,0,4.42-1.2,2.81,2.81,0,0,0-1.32-4,3.46,3.46,0,0,0-4.43,1.2,3.36,3.36,0,0,0-.2.43.65.65,0,0,0-.33-.21,1.2,1.2,0,0,0-.86.08,2.85,2.85,0,0,0-1.66-3,3.46,3.46,0,0,0-4.43,1.19,3.53,3.53,0,0,0-.25.57l-6.56-1.52A.2.2,0,0,0,112.42,209.71Zm14.91,2.55a3,3,0,0,1,3.86-1,2.45,2.45,0,0,1,1.16,3.49,3,3,0,0,1-3.86,1.05A2.45,2.45,0,0,1,127.33,212.26Zm-7.48-1.55a3,3,0,0,1,3.86-1.05,2.45,2.45,0,0,1,1.16,3.49,3,3,0,0,1-3.86,1A2.45,2.45,0,0,1,119.85,210.71Z" style="fill:#263238"></path><g style="isolation:isolate;opacity:0.30000000000000004"><path d="M112.42,209.71a.18.18,0,0,0,.1.21l0,0,6.59,1.53a2.87,2.87,0,0,0,1.66,3.06,3.47,3.47,0,0,0,4.43-1.2,2.69,2.69,0,0,0,.19-.43,1.12,1.12,0,0,1,.85-.25.57.57,0,0,1,.34.39,2.88,2.88,0,0,0,1.67,3,3.45,3.45,0,0,0,4.42-1.2,2.81,2.81,0,0,0-1.32-4,3.46,3.46,0,0,0-4.43,1.2,3.36,3.36,0,0,0-.2.43.65.65,0,0,0-.33-.21,1.2,1.2,0,0,0-.86.08,2.85,2.85,0,0,0-1.66-3,3.46,3.46,0,0,0-4.43,1.19,3.53,3.53,0,0,0-.25.57l-6.56-1.52A.2.2,0,0,0,112.42,209.71Zm14.91,2.55a3,3,0,0,1,3.86-1,2.45,2.45,0,0,1,1.16,3.49,3,3,0,0,1-3.86,1.05A2.45,2.45,0,0,1,127.33,212.26Zm-7.48-1.55a3,3,0,0,1,3.86-1.05,2.45,2.45,0,0,1,1.16,3.49,3,3,0,0,1-3.86,1A2.45,2.45,0,0,1,119.85,210.71Z" style="fill:#fff"></path></g><path d="M114.18,212.69a3,3,0,0,0-2.27-3.52c-2.07-.4-4.28,3.43.4,5.94C113,215.47,113.6,214.89,114.18,212.69Z" style="fill:#ebb376"></path><path d="M93,234.08s-2.52,14.16,6,21.49,8.46-13.94,6.5-20.93C104,229.29,93,234.08,93,234.08Z" style="opacity:0.2"></path><path d="M125,281.5l.06-1.95a2.26,2.26,0,0,0-.9-1.88l-2.73-2.08a4.24,4.24,0,0,0-3.83-.67l-.82.25c-.32,3.23,1.72,7,1.72,7l.46,1.13a1.9,1.9,0,0,0,2.46,1.1l2.25-.89A2.18,2.18,0,0,0,125,281.5Z" style="fill:#ebb376"></path><path d="M102.43,234c1.44,8.62,2.58,17.28,3.61,26l-1-2q3.93,4.15,7.74,8.41c2.21,2.52,5.38,6.11,7.44,8.7a2,2,0,0,1-2.75,2.81c-5.92-4.61-11.87-9.77-17.44-14.79a3.32,3.32,0,0,1-1-2c-1.63-8.58-3.15-17.19-4.37-25.84a4,4,0,0,1,7.84-1.21Z" style="fill:#e9b376"></path><path d="M100.53,225.56c-5,.55-9.1,2.72-6.93,18.19l12.25-.63S106.44,224.9,100.53,225.56Z" style="fill:#263238"></path></g></svg>
